<svg id="visual" viewBox="0 0 1905 600" width="1905" height="600" xmlns="http://www.w3.org/2000/svg" xmlns:xlink="http://www.w3.org/1999/xlink" version="1.1"><rect x="0" y="0" width="1905" height="600" fill="#1347d8"></rect><path d="M0 491L28.8 488.8C57.7 486.7 115.3 482.3 173 476C230.7 469.7 288.3 461.3 346.2 461.8C404 462.3 462 471.7 519.8 470.7C577.7 469.7 635.3 458.3 693 460C750.7 461.7 808.3 476.3 866 475.5C923.7 474.7 981.3 458.3 1039 458.7C1096.7 459 1154.3 476 1212 482C1269.7 488 1327.3 483 1385.2 482.2C1443 481.3 1501 484.7 1558.8 477.5C1616.7 470.3 1674.3 452.7 1732 447.5C1789.7 442.3 1847.3 449.7 1876.2 453.3L1905 457L1905 601L1876.2 601C1847.3 601 1789.7 601 1732 601C1674.3 601 1616.7 601 1558.8 601C1501 601 1443 601 1385.2 601C1327.3 601 1269.7 601 1212 601C1154.3 601 1096.7 601 1039 601C981.3 601 923.7 601 866 601C808.3 601 750.7 601 693 601C635.3 601 577.7 601 519.8 601C462 601 404 601 346.2 601C288.3 601 230.7 601 173 601C115.3 601 57.7 601 28.8 601L0 601Z" fill="#1140c0"></path><path d="M0 520L28.8 521.3C57.7 522.7 115.3 525.3 173 522.2C230.7 519 288.3 510 346.2 504C404 498 462 495 519.8 491.8C577.7 488.7 635.3 485.3 693 480C750.7 474.7 808.3 467.3 866 473.2C923.7 479 981.3 498 1039 503C1096.7 508 1154.3 499 1212 490.5C1269.7 482 1327.3 474 1385.2 480.5C1443 487 1501 508 1558.8 513.5C1616.7 519 1674.3 509 1732 500C1789.7 491 1847.3 483 1876.2 479L1905 475L1905 601L1876.2 601C1847.3 601 1789.7 601 1732 601C1674.3 601 1616.7 601 1558.8 601C1501 601 1443 601 1385.2 601C1327.3 601 1269.7 601 1212 601C1154.3 601 1096.7 601 1039 601C981.3 601 923.7 601 866 601C808.3 601 750.7 601 693 601C635.3 601 577.7 601 519.8 601C462 601 404 601 346.2 601C288.3 601 230.7 601 173 601C115.3 601 57.7 601 28.8 601L0 601Z" fill="#a19ae1"></path><path d="M0 540L28.8 542.2C57.7 544.3 115.3 548.7 173 552.8C230.7 557 288.3 561 346.2 561.8C404 562.7 462 560.3 519.8 557.5C577.7 554.7 635.3 551.3 693 544.3C750.7 537.3 808.3 526.7 866 521.7C923.7 516.7 981.3 517.3 1039 519.5C1096.7 521.7 1154.3 525.3 1212 525C1269.7 524.7 1327.3 520.3 1385.2 525.5C1443 530.7 1501 545.3 1558.8 544.5C1616.7 543.7 1674.3 527.3 1732 521.7C1789.7 516 1847.3 521 1876.2 523.5L1905 526L1905 601L1876.2 601C1847.3 601 1789.7 601 1732 601C1674.3 601 1616.7 601 1558.8 601C1501 601 1443 601 1385.2 601C1327.3 601 1269.7 601 1212 601C1154.3 601 1096.7 601 1039 601C981.3 601 923.7 601 866 601C808.3 601 750.7 601 693 601C635.3 601 577.7 601 519.8 601C462 601 404 601 346.2 601C288.3 601 230.7 601 173 601C115.3 601 57.7 601 28.8 601L0 601Z" fill="#ffffff"></path></svg>