<svg id="visual" viewBox="0 0 900 600" width="900" height="600" xmlns="http://www.w3.org/2000/svg" xmlns:xlink="http://www.w3.org/1999/xlink" version="1.1"><g stroke-width="1" stroke-linejoin="bevel"><path d="M490 312L547 381L550 315Z" fill="#1140c0" stroke="#1140c0"></path><path d="M547 381L565 401L550 315Z" fill="#00409b" stroke="#00409b"></path><path d="M490 312L443 453L547 381Z" fill="#001616" stroke="#001616"></path><path d="M547 381L443 453L565 401Z" fill="#003d87" stroke="#003d87"></path><path d="M679 303L596 233L550 315Z" fill="#1140c0" stroke="#1140c0"></path><path d="M550 315L596 233L490 312Z" fill="#003a72" stroke="#003a72"></path><path d="M646 515L659 392L565 401Z" fill="#003a72" stroke="#003a72"></path><path d="M565 401L659 392L550 315Z" fill="#002837" stroke="#002837"></path><path d="M490 312L395 437L443 453Z" fill="#003a72" stroke="#003a72"></path><path d="M410 215L372 274L490 312Z" fill="#003d87" stroke="#003d87"></path><path d="M490 312L372 274L395 437Z" fill="#001f25" stroke="#001f25"></path><path d="M659 392L679 303L550 315Z" fill="#001616" stroke="#001616"></path><path d="M543 163L410 215L490 312Z" fill="#001f25" stroke="#001f25"></path><path d="M513 600L538 519L443 453Z" fill="#1140c0" stroke="#1140c0"></path><path d="M443 453L538 519L565 401Z" fill="#002f4b" stroke="#002f4b"></path><path d="M567 81L543 163L596 233Z" fill="#002837" stroke="#002837"></path><path d="M596 233L543 163L490 312Z" fill="#002837" stroke="#002837"></path><path d="M410 215L337 264L372 274Z" fill="#00409b" stroke="#00409b"></path><path d="M372 274L276 428L395 437Z" fill="#003a72" stroke="#003a72"></path><path d="M538 519L646 515L565 401Z" fill="#001f25" stroke="#001f25"></path><path d="M774 234L719 217L679 303Z" fill="#0041ae" stroke="#0041ae"></path><path d="M543 163L458 127L410 215Z" fill="#00409b" stroke="#00409b"></path><path d="M410 215L315 231L337 264Z" fill="#001f25" stroke="#001f25"></path><path d="M294 139L315 231L410 215Z" fill="#0041ae" stroke="#0041ae"></path><path d="M337 264L276 428L372 274Z" fill="#002837" stroke="#002837"></path><path d="M779 379L679 303L659 392Z" fill="#001616" stroke="#001616"></path><path d="M679 303L719 217L596 233Z" fill="#001616" stroke="#001616"></path><path d="M543 163L567 81L458 127Z" fill="#002f4b" stroke="#002f4b"></path><path d="M357 600L513 600L443 453Z" fill="#00409b" stroke="#00409b"></path><path d="M538 519L621 600L646 515Z" fill="#002f4b" stroke="#002f4b"></path><path d="M248 275L276 428L337 264Z" fill="#1140c0" stroke="#1140c0"></path><path d="M395 437L357 600L443 453Z" fill="#003a72" stroke="#003a72"></path><path d="M709 600L735 483L646 515Z" fill="#010907" stroke="#010907"></path><path d="M646 515L735 483L659 392Z" fill="#003a72" stroke="#003a72"></path><path d="M735 483L779 379L659 392Z" fill="#0041ae" stroke="#0041ae"></path><path d="M662 49L567 81L596 233Z" fill="#001f25" stroke="#001f25"></path><path d="M513 600L621 600L538 519Z" fill="#00355d" stroke="#00355d"></path><path d="M757 600L762 477L735 483Z" fill="#010907" stroke="#010907"></path><path d="M735 483L762 477L779 379Z" fill="#003d87" stroke="#003d87"></path><path d="M779 379L774 234L679 303Z" fill="#00409b" stroke="#00409b"></path><path d="M719 217L662 49L596 233Z" fill="#0041ae" stroke="#0041ae"></path><path d="M191 240L248 275L315 231Z" fill="#001616" stroke="#001616"></path><path d="M315 231L248 275L337 264Z" fill="#001f25" stroke="#001f25"></path><path d="M567 81L438 78L458 127Z" fill="#00355d" stroke="#00355d"></path><path d="M458 127L294 139L410 215Z" fill="#001616" stroke="#001616"></path><path d="M273 520L357 600L395 437Z" fill="#003a72" stroke="#003a72"></path><path d="M164 517L273 520L276 428Z" fill="#002f4b" stroke="#002f4b"></path><path d="M276 428L273 520L395 437Z" fill="#001616" stroke="#001616"></path><path d="M248 275L217 388L276 428Z" fill="#00355d" stroke="#00355d"></path><path d="M438 78L294 139L458 127Z" fill="#002f4b" stroke="#002f4b"></path><path d="M621 600L709 600L646 515Z" fill="#002f4b" stroke="#002f4b"></path><path d="M900 413L831 275L779 379Z" fill="#010907" stroke="#010907"></path><path d="M779 379L831 275L774 234Z" fill="#003d87" stroke="#003d87"></path><path d="M784 56L662 49L719 217Z" fill="#010907" stroke="#010907"></path><path d="M687 0L662 49L784 56Z" fill="#010907" stroke="#010907"></path><path d="M567 81L545 0L438 78Z" fill="#001616" stroke="#001616"></path><path d="M273 520L289 600L357 600Z" fill="#001f25" stroke="#001f25"></path><path d="M191 600L289 600L273 520Z" fill="#002f4b" stroke="#002f4b"></path><path d="M294 139L191 240L315 231Z" fill="#1140c0" stroke="#1140c0"></path><path d="M248 275L150 307L217 388Z" fill="#001616" stroke="#001616"></path><path d="M598 0L545 0L567 81Z" fill="#001f25" stroke="#001f25"></path><path d="M438 78L307 0L294 139Z" fill="#1140c0" stroke="#1140c0"></path><path d="M709 600L757 600L735 483Z" fill="#0041ae" stroke="#0041ae"></path><path d="M762 477L900 413L779 379Z" fill="#010907" stroke="#010907"></path><path d="M545 0L444 0L438 78Z" fill="#0041ae" stroke="#0041ae"></path><path d="M662 49L598 0L567 81Z" fill="#010907" stroke="#010907"></path><path d="M307 0L235 113L294 139Z" fill="#0041ae" stroke="#0041ae"></path><path d="M294 139L235 113L191 240Z" fill="#003a72" stroke="#003a72"></path><path d="M58 213L150 307L191 240Z" fill="#003a72" stroke="#003a72"></path><path d="M191 240L150 307L248 275Z" fill="#003d87" stroke="#003d87"></path><path d="M217 388L164 517L276 428Z" fill="#1140c0" stroke="#1140c0"></path><path d="M784 56L719 217L774 234Z" fill="#1140c0" stroke="#1140c0"></path><path d="M662 49L687 0L598 0Z" fill="#1140c0" stroke="#1140c0"></path><path d="M900 472L900 413L762 477Z" fill="#010907" stroke="#010907"></path><path d="M900 413L900 270L831 275Z" fill="#002837" stroke="#002837"></path><path d="M831 275L900 232L774 234Z" fill="#00409b" stroke="#00409b"></path><path d="M139 516L164 517L217 388Z" fill="#001f25" stroke="#001f25"></path><path d="M900 150L784 56L774 234Z" fill="#001616" stroke="#001616"></path><path d="M900 270L900 232L831 275Z" fill="#001f25" stroke="#001f25"></path><path d="M900 600L900 472L762 477Z" fill="#00355d" stroke="#00355d"></path><path d="M444 0L307 0L438 78Z" fill="#002837" stroke="#002837"></path><path d="M164 517L191 600L273 520Z" fill="#001f25" stroke="#001f25"></path><path d="M57 404L139 516L217 388Z" fill="#001f25" stroke="#001f25"></path><path d="M164 517L139 516L191 600Z" fill="#002f4b" stroke="#002f4b"></path><path d="M900 232L900 150L774 234Z" fill="#001616" stroke="#001616"></path><path d="M900 0L806 0L784 56Z" fill="#001616" stroke="#001616"></path><path d="M784 56L806 0L687 0Z" fill="#00409b" stroke="#00409b"></path><path d="M757 600L900 600L762 477Z" fill="#00409b" stroke="#00409b"></path><path d="M150 307L57 404L217 388Z" fill="#1140c0" stroke="#1140c0"></path><path d="M139 516L74 600L191 600Z" fill="#001616" stroke="#001616"></path><path d="M0 318L57 404L150 307Z" fill="#010907" stroke="#010907"></path><path d="M307 0L199 0L235 113Z" fill="#002f4b" stroke="#002f4b"></path><path d="M68 134L58 213L191 240Z" fill="#00355d" stroke="#00355d"></path><path d="M68 134L191 240L235 113Z" fill="#0041ae" stroke="#0041ae"></path><path d="M129 0L68 134L235 113Z" fill="#00409b" stroke="#00409b"></path><path d="M0 469L74 600L139 516Z" fill="#00355d" stroke="#00355d"></path><path d="M900 150L900 0L784 56Z" fill="#0041ae" stroke="#0041ae"></path><path d="M0 171L0 318L58 213Z" fill="#00355d" stroke="#00355d"></path><path d="M58 213L0 318L150 307Z" fill="#0041ae" stroke="#0041ae"></path><path d="M57 404L0 469L139 516Z" fill="#1140c0" stroke="#1140c0"></path><path d="M199 0L129 0L235 113Z" fill="#003a72" stroke="#003a72"></path><path d="M0 318L0 439L57 404Z" fill="#001f25" stroke="#001f25"></path><path d="M0 439L0 469L57 404Z" fill="#002837" stroke="#002837"></path><path d="M68 134L0 171L58 213Z" fill="#1140c0" stroke="#1140c0"></path><path d="M0 54L0 171L68 134Z" fill="#1140c0" stroke="#1140c0"></path><path d="M0 469L0 600L74 600Z" fill="#1140c0" stroke="#1140c0"></path><path d="M129 0L0 54L68 134Z" fill="#001f25" stroke="#001f25"></path><path d="M129 0L0 0L0 54Z" fill="#002837" stroke="#002837"></path></g></svg>