<svg id="visual" viewBox="0 0 1920 900" width="1920" height="900" xmlns="http://www.w3.org/2000/svg" xmlns:xlink="http://www.w3.org/1999/xlink" version="1.1"><g><g transform="translate(1745 509)"><path d="M0 -164L116 -116L164 0L116 116L0 164L-116 116L-164 0L-116 -116Z" fill="none" stroke="#fff" stroke-width="5"></path></g><g transform="translate(980 651)"><path d="M0 -68L48.1 -48.1L68 0L48.1 48.1L0 68L-48.1 48.1L-68 0L-48.1 -48.1Z" fill="none" stroke="#fff" stroke-width="5"></path></g><g transform="translate(1531 114)"><path d="M0 -123L87 -87L123 0L87 87L0 123L-87 87L-123 0L-87 -87Z" fill="none" stroke="#fff" stroke-width="5"></path></g><g transform="translate(1331 751)"><path d="M0 -163L115.3 -115.3L163 0L115.3 115.3L0 163L-115.3 115.3L-163 0L-115.3 -115.3Z" stroke="#fff" fill="none" stroke-width="5"></path></g><g transform="translate(56 493)"><path d="M0 -112L79.2 -79.2L112 0L79.2 79.2L0 112L-79.2 79.2L-112 0L-79.2 -79.2Z" stroke="#fff" fill="none" stroke-width="5"></path></g><g transform="translate(545 746)"><path d="M0 -72L50.9 -50.9L72 0L50.9 50.9L0 72L-50.9 50.9L-72 0L-50.9 -50.9Z" stroke="#fff" fill="none" stroke-width="5"></path></g><g transform="translate(721 158)"><path d="M0 -126L89.1 -89.1L126 0L89.1 89.1L0 126L-89.1 89.1L-126 0L-89.1 -89.1Z" stroke="#fff" fill="none" stroke-width="5"></path></g><g transform="translate(113 890)"><path d="M0 -64L45.3 -45.3L64 0L45.3 45.3L0 64L-45.3 45.3L-64 0L-45.3 -45.3Z" stroke="#fff" fill="none" stroke-width="5"></path></g><g transform="translate(1184 196)"><path d="M0 -80L56.6 -56.6L80 0L56.6 56.6L0 80L-56.6 56.6L-80 0L-56.6 -56.6Z" stroke="#fff" fill="none" stroke-width="5"></path></g></g></svg>