<svg id="visual" viewBox="0 0 1920 600" width="1920" height="600" xmlns="http://www.w3.org/2000/svg" xmlns:xlink="http://www.w3.org/1999/xlink" version="1.1"><g><g transform="translate(19 594)"><path d="M0 -167.9L118.7 -118.7L167.9 0L118.7 118.7L0 167.9L-118.7 118.7L-167.9 0L-118.7 -118.7Z" fill="none" stroke="#fff" stroke-width="5"></path></g><g transform="translate(1260 25)"><path d="M0 -96L67.9 -67.9L96 0L67.9 67.9L0 96L-67.9 67.9L-96 0L-67.9 -67.9Z" fill="none" stroke="#fff" stroke-width="5"></path></g><g transform="translate(1172 390)"><path d="M0 -164L116 -116L164 0L116 116L0 164L-116 116L-164 0L-116 -116Z" fill="none" stroke="#fff" stroke-width="5"></path></g><g transform="translate(690 581)"><path d="M0 -149L105.4 -105.4L149 0L105.4 105.4L0 149L-105.4 105.4L-149 0L-105.4 -105.4Z" stroke="#fff" fill="none" stroke-width="5"></path></g><g transform="translate(394 112)"><path d="M0 -103L72.8 -72.8L103 0L72.8 72.8L0 103L-72.8 72.8L-103 0L-72.8 -72.8Z" stroke="#fff" fill="none" stroke-width="5"></path></g><g transform="translate(1826 103)"><path d="M0 -163L115.3 -115.3L163 0L115.3 115.3L0 163L-115.3 115.3L-163 0L-115.3 -115.3Z" stroke="#fff" fill="none" stroke-width="5"></path></g><g transform="translate(328 447)"><path d="M0 -117L82.7 -82.7L117 0L82.7 82.7L0 117L-82.7 82.7L-117 0L-82.7 -82.7Z" stroke="#fff" fill="none" stroke-width="5"></path></g></g></svg>